<?xml version="1.0" encoding="UTF-8" standalone="no"?>
<!DOCTYPE svg PUBLIC "-//W3C//DTD SVG 1.1//EN" "http://www.w3.org/Graphics/SVG/1.1/DTD/svg11.dtd">
<svg width="100%" height="100%" viewBox="0 0 121 119" version="1.1" xmlns="http://www.w3.org/2000/svg" xmlns:xlink="http://www.w3.org/1999/xlink" xml:space="preserve" xmlns:serif="http://www.serif.com/" style="fill-rule:evenodd;clip-rule:evenodd;stroke-linecap:square;stroke-linejoin:round;stroke-miterlimit:1.5;">
    <g transform="matrix(1,0,0,1,-180.003,-198.459)">
        <g transform="matrix(1,0,0,0.5,0,150)">
            <path d="M200,100L200,300" style="fill:none;stroke:rgb(255,0,0);stroke-width:0.38px;"/>
        </g>
        <g transform="matrix(-1,-6.66134e-16,8.99281e-17,0.135,500,259.5)">
            <path d="M210,85.185L290,-418.519" style="fill:none;stroke:rgb(255,0,0);stroke-width:0.42px;"/>
        </g>
        <g transform="matrix(1,0,0,0.135,1.7053e-13,259.5)">
            <path d="M210,-329.63L290,114.815" style="fill:none;stroke:rgb(255,0,0);stroke-width:0.42px;stroke-dasharray:1.68,1.68,0,0;"/>
        </g>
        <g transform="matrix(-5.55112e-17,-1,0.5,-2.77556e-17,150,500)">
            <path d="M200,100L200,300" style="fill:none;stroke:rgb(255,0,0);stroke-width:0.38px;"/>
        </g>
        <g transform="matrix(0.5,-0.866025,0.866025,0.5,-156.417,323.976)">
            <text x="194.001px" y="309.985px" style="font-family:'ArialMT', 'Arial', sans-serif;font-size:4.167px;fill:rgb(255,0,0);">100</text>
        </g>
        <g transform="matrix(0.5,-0.866025,0.866025,0.5,-146.417,323.976)">
            <text x="194.001px" y="309.985px" style="font-family:'ArialMT', 'Arial', sans-serif;font-size:4.167px;fill:rgb(255,0,0);">200</text>
        </g>
        <g transform="matrix(0.5,-0.866025,0.866025,0.5,-136.417,323.976)">
            <text x="194.001px" y="309.985px" style="font-family:'ArialMT', 'Arial', sans-serif;font-size:4.167px;fill:rgb(255,0,0);">300</text>
        </g>
        <g transform="matrix(0.5,-0.866025,0.866025,0.5,-126.417,323.976)">
            <text x="194.001px" y="309.985px" style="font-family:'ArialMT', 'Arial', sans-serif;font-size:4.167px;fill:rgb(255,0,0);">400</text>
        </g>
        <g transform="matrix(0.5,-0.866025,0.866025,0.5,-116.417,323.976)">
            <text x="194.001px" y="309.985px" style="font-family:'ArialMT', 'Arial', sans-serif;font-size:4.167px;fill:rgb(255,0,0);">500</text>
        </g>
        <g transform="matrix(0.5,-0.866025,0.866025,0.5,-106.417,323.976)">
            <text x="194.001px" y="309.985px" style="font-family:'ArialMT', 'Arial', sans-serif;font-size:4.167px;fill:rgb(255,0,0);">600</text>
        </g>
        <g transform="matrix(0.5,-0.866025,0.866025,0.5,-96.4166,323.976)">
            <text x="194.001px" y="309.985px" style="font-family:'ArialMT', 'Arial', sans-serif;font-size:4.167px;fill:rgb(255,0,0);">700</text>
        </g>
        <g transform="matrix(0.5,-0.866025,0.866025,0.5,-86.4166,323.976)">
            <text x="194.001px" y="309.985px" style="font-family:'ArialMT', 'Arial', sans-serif;font-size:4.167px;fill:rgb(255,0,0);">800</text>
        </g>
        <g transform="matrix(0.5,-0.866025,0.866025,0.5,-76.4166,323.976)">
            <text x="194.001px" y="309.985px" style="font-family:'ArialMT', 'Arial', sans-serif;font-size:4.167px;fill:rgb(255,0,0);">900</text>
        </g>
        <g transform="matrix(1,0,0,1,-10,-111.5)">
            <text x="194.843px" y="312.992px" style="font-family:'ArialMT', 'Arial', sans-serif;font-size:4.167px;fill:rgb(255,0,0);">100%</text>
        </g>
        <g transform="matrix(1,0,0,1,-10,-101.5)">
            <text x="197.161px" y="312.992px" style="font-family:'ArialMT', 'Arial', sans-serif;font-size:4.167px;fill:rgb(255,0,0);">90%</text>
        </g>
        <g transform="matrix(1,0,0,1,-10,-91.5)">
            <text x="197.161px" y="312.992px" style="font-family:'ArialMT', 'Arial', sans-serif;font-size:4.167px;fill:rgb(255,0,0);">80%</text>
        </g>
        <g transform="matrix(1,0,0,1,-10,-81.5)">
            <text x="197.161px" y="312.992px" style="font-family:'ArialMT', 'Arial', sans-serif;font-size:4.167px;fill:rgb(255,0,0);">70%</text>
        </g>
        <g transform="matrix(1,0,0,1,-10,-71.5)">
            <text x="197.161px" y="312.992px" style="font-family:'ArialMT', 'Arial', sans-serif;font-size:4.167px;fill:rgb(255,0,0);">60%</text>
        </g>
        <g transform="matrix(1,0,0,1,-10,-61.5)">
            <text x="197.161px" y="312.992px" style="font-family:'ArialMT', 'Arial', sans-serif;font-size:4.167px;fill:rgb(255,0,0);">50%</text>
        </g>
        <g transform="matrix(1,0,0,1,-10,-51.5)">
            <text x="197.161px" y="312.992px" style="font-family:'ArialMT', 'Arial', sans-serif;font-size:4.167px;fill:rgb(255,0,0);">40%</text>
        </g>
        <g transform="matrix(1,0,0,1,-10,-41.5)">
            <text x="197.161px" y="312.992px" style="font-family:'ArialMT', 'Arial', sans-serif;font-size:4.167px;fill:rgb(255,0,0);">30%</text>
        </g>
        <g transform="matrix(1,0,0,1,-10,-31.5)">
            <text x="197.161px" y="312.992px" style="font-family:'ArialMT', 'Arial', sans-serif;font-size:4.167px;fill:rgb(255,0,0);">20%</text>
        </g>
        <g transform="matrix(1,0,0,1,-10,-21.5)">
            <text x="197.161px" y="312.992px" style="font-family:'ArialMT', 'Arial', sans-serif;font-size:4.167px;fill:rgb(255,0,0);">10%</text>
        </g>
        <g transform="matrix(1,0,0,1,-10,-11.5)">
            <text x="199.478px" y="312.992px" style="font-family:'ArialMT', 'Arial', sans-serif;font-size:4.167px;fill:rgb(255,0,0);">0%</text>
        </g>
        <g transform="matrix(1,0,0,1,32.8161,-102)">
            <text x="194px" y="309.985px" style="font-family:'ArialMT', 'Arial', sans-serif;font-size:4.167px;fill:rgb(255,0,0);">Light theme shades</text>
            <text x="204.541px" y="314.288px" style="font-family:'ArialMT', 'Arial', sans-serif;font-size:4.167px;fill:rgb(255,0,0);">(default)</text>
        </g>
        <g transform="matrix(1,0,0,1,57.8702,-27.9928)">
            <text x="194px" y="309.985px" style="font-family:'ArialMT', 'Arial', sans-serif;font-size:4.167px;fill:rgb(255,0,0);">Dark theme shades</text>
        </g>
        <g transform="matrix(1,0,0,1,16.1363,6)">
            <text x="212.275px" y="309.985px" style="font-family:'ArialMT', 'Arial', sans-serif;font-size:4.167px;fill:rgb(255,0,0);">Lightness code number</text>
        </g>
        <g transform="matrix(6.12323e-17,-1,1,6.12323e-17,-127,484)">
            <text x="219.454px" y="309.985px" style="font-family:'ArialMT', 'Arial', sans-serif;font-size:4.167px;fill:rgb(255,0,0);">Lightness value</text>
        </g>
        <g transform="matrix(0.666667,0,0,1,66.6667,0)">
            <path d="M200,200L197,200" style="fill:none;stroke:rgb(255,0,0);stroke-width:0.35px;"/>
        </g>
        <g transform="matrix(0.666667,0,0,1,66.6667,10)">
            <path d="M200,200L197,200" style="fill:none;stroke:rgb(255,0,0);stroke-width:0.35px;"/>
        </g>
        <g transform="matrix(0.666667,0,0,1,66.6667,20)">
            <path d="M200,200L197,200" style="fill:none;stroke:rgb(255,0,0);stroke-width:0.35px;"/>
        </g>
        <g transform="matrix(0.666667,0,0,1,66.6667,30)">
            <path d="M200,200L197,200" style="fill:none;stroke:rgb(255,0,0);stroke-width:0.35px;"/>
        </g>
        <g transform="matrix(0.666667,0,0,1,66.6667,40)">
            <path d="M200,200L197,200" style="fill:none;stroke:rgb(255,0,0);stroke-width:0.35px;"/>
        </g>
        <g transform="matrix(0.666667,0,0,1,66.6667,50)">
            <path d="M200,200L197,200" style="fill:none;stroke:rgb(255,0,0);stroke-width:0.35px;"/>
        </g>
        <g transform="matrix(0.666667,0,0,1,66.6667,60)">
            <path d="M200,200L197,200" style="fill:none;stroke:rgb(255,0,0);stroke-width:0.35px;"/>
        </g>
        <g transform="matrix(0.666667,0,0,1,66.6667,70)">
            <path d="M200,200L197,200" style="fill:none;stroke:rgb(255,0,0);stroke-width:0.35px;"/>
        </g>
        <g transform="matrix(0.666667,0,0,1,66.6667,80)">
            <path d="M200,200L197,200" style="fill:none;stroke:rgb(255,0,0);stroke-width:0.35px;"/>
        </g>
        <g transform="matrix(0.666667,0,0,1,66.6667,90)">
            <path d="M200,200L197,200" style="fill:none;stroke:rgb(255,0,0);stroke-width:0.35px;"/>
        </g>
        <g transform="matrix(0.666667,0,0,1,66.6667,100)">
            <path d="M200,200L197,200" style="fill:none;stroke:rgb(255,0,0);stroke-width:0.35px;"/>
        </g>
        <g transform="matrix(-6.0299e-15,-0.666667,1,-9.04832e-15,10,433.333)">
            <path d="M200,200L197,200" style="fill:none;stroke:rgb(255,0,0);stroke-width:0.35px;"/>
        </g>
        <g transform="matrix(-6.0299e-15,-0.666667,1,-9.04832e-15,20,433.333)">
            <path d="M200,200L197,200" style="fill:none;stroke:rgb(255,0,0);stroke-width:0.35px;"/>
        </g>
        <g transform="matrix(-6.0299e-15,-0.666667,1,-9.04832e-15,30,433.333)">
            <path d="M200,200L197,200" style="fill:none;stroke:rgb(255,0,0);stroke-width:0.35px;"/>
        </g>
        <g transform="matrix(-6.0299e-15,-0.666667,1,-9.04832e-15,40,433.333)">
            <path d="M200,200L197,200" style="fill:none;stroke:rgb(255,0,0);stroke-width:0.35px;"/>
        </g>
        <g transform="matrix(-6.0299e-15,-0.666667,1,-9.04832e-15,50,433.333)">
            <path d="M200,200L197,200" style="fill:none;stroke:rgb(255,0,0);stroke-width:0.35px;"/>
        </g>
        <g transform="matrix(-6.0299e-15,-0.666667,1,-9.04832e-15,60,433.333)">
            <path d="M200,200L197,200" style="fill:none;stroke:rgb(255,0,0);stroke-width:0.35px;"/>
        </g>
        <g transform="matrix(-6.0299e-15,-0.666667,1,-9.04832e-15,70,433.333)">
            <path d="M200,200L197,200" style="fill:none;stroke:rgb(255,0,0);stroke-width:0.35px;"/>
        </g>
        <g transform="matrix(-6.0299e-15,-0.666667,1,-9.04832e-15,80,433.333)">
            <path d="M200,200L197,200" style="fill:none;stroke:rgb(255,0,0);stroke-width:0.35px;"/>
        </g>
        <g transform="matrix(-6.0299e-15,-0.666667,1,-9.04832e-15,90,433.333)">
            <path d="M200,200L197,200" style="fill:none;stroke:rgb(255,0,0);stroke-width:0.35px;"/>
        </g>
        <g transform="matrix(1,-0,-0,1,180.003,198.459)">
            <path d="M60.152,26.55L57.997,27.541L59.127,25.455L60.152,26.55Z" style="fill:rgb(255,0,0);"/>
            <path d="M64.997,16.541C64.989,20.17 61.336,24.3 59.311,26.31" style="fill:none;stroke:rgb(255,0,0);stroke-width:0.5px;"/>
        </g>
        <g transform="matrix(-1,1.22465e-16,-1.22465e-16,-1,514.903,492)">
            <g transform="matrix(-1,-1.22465e-16,1.22465e-16,-1,334.9,293.541)">
                <path d="M94.746,68.532L96.9,67.541L95.771,69.627L94.746,68.532Z" style="fill:rgb(255,0,0);"/>
                <path d="M89.9,78.541C89.909,74.912 93.562,70.782 95.587,68.772" style="fill:none;stroke:rgb(255,0,0);stroke-width:0.5px;"/>
            </g>
        </g>
    </g>
</svg>
